<svg width="40" height="40" viewBox="0 0 40 40" fill="none" xmlns="http://www.w3.org/2000/svg">
<path d="M20 10.8333C21.105 10.8333 22.1649 11.2722 22.9463 12.0536C23.7277 12.835 24.1666 13.8948 24.1666 14.9999C24.1666 15.5471 24.0589 16.0889 23.8495 16.5944C23.6401 17.1 23.3332 17.5593 22.9463 17.9462C22.5593 18.3331 22.1 18.64 21.5945 18.8494C21.089 19.0588 20.5472 19.1666 20 19.1666C18.8949 19.1666 17.8351 18.7276 17.0537 17.9462C16.2723 17.1648 15.8333 16.105 15.8333 14.9999C15.8333 13.8948 16.2723 12.835 17.0537 12.0536C17.8351 11.2722 18.8949 10.8333 20 10.8333ZM20 3.33325C23.0942 3.33325 26.0616 4.56241 28.2496 6.75034C30.4375 8.93826 31.6666 11.9057 31.6666 14.9999C31.6666 23.7499 20 36.6666 20 36.6666C20 36.6666 8.33331 23.7499 8.33331 14.9999C8.33331 11.9057 9.56248 8.93826 11.7504 6.75034C13.9383 4.56241 16.9058 3.33325 20 3.33325ZM20 6.66659C17.7898 6.66659 15.6702 7.54456 14.1074 9.10736C12.5446 10.6702 11.6666 12.7898 11.6666 14.9999C11.6666 16.6666 11.6666 19.9999 20 31.1833C28.3333 19.9999 28.3333 16.6666 28.3333 14.9999C28.3333 12.7898 27.4553 10.6702 25.8925 9.10736C24.3297 7.54456 22.2101 6.66659 20 6.66659Z" fill="#F8F8F8"/>
</svg>
